<svg xmlns="http://www.w3.org/2000/svg" xmlns:xlink="http://www.w3.org/1999/xlink" aria-hidden="true" role="img" class="iconify iconify--logos" width="31.88" height="32" preserveAspectRatio="xMidYMid meet" viewBox="0 0 256 257"><defs><linearGradient id="a" x1="-.828%" x2="57.636%" y1="7.652%" y2="78.411%"><stop offset="0%" stop-color="#41D1FF"/><stop offset="100%" stop-color="#BD34FE"/></linearGradient><linearGradient id="b" x1="43.376%" x2="50.316%" y1="2.242%" y2="89.03%"><stop offset="0%" stop-color="#FFEA83"/><stop offset="8.333%" stop-color="#FFDD35"/><stop offset="100%" stop-color="#FFA800"/></linearGradient></defs><path fill="url(#a)" d="M255.153 37.938L134.897 252.976c-2.483 4.44-8.862 4.466-11.382.048L.875 37.958c-2.746-4.814 1.371-10.646 6.827-9.678l120.385 21.517a6.537 6.537 0 0 0 2.322-.004l117.867-21.483c5.438-.991 9.574 4.796 6.877 9.628zM120.34 86.31l-72.366-12.92 71.135-12.953a6.53 6.53 0 0 1 2.306 0l71.119 12.955-72.299 12.917a6.548 6.548 0 0 1-1.895 0zm0 30.715l-53.02-9.471 52.3-9.353a6.535 6.535 0 0 1 1.442 0l52.305 9.353-53.027 9.471a6.543 6.543 0 0 1-2.287 0zm-60.631 34.857l-36.231-6.471 36.28-6.48a6.53 6.53 0 0 1 2.182 0l36.285 6.48-36.231 6.471a6.535 6.535 0 0 1-1.971 0zm104.908-2.53l36.2 6.463-36.2 6.464a6.52 6.52 0 0 1-1.998 0l-36.15-6.464 36.15-6.463a6.523 6.523 0 0 1 1.998 0zM128.195 207.93l29.112 5.198-29.112 5.198a6.537 6.537 0 0 1-1.886 0l-29.208-5.198 29.208-5.198a6.53 6.53 0 0 1 1.886 0z"/></svg>
